HIERARCHY
ROOT mixamorig:Hips
{
	OFFSET 0.00 0.00 0.00
	CHANNELS 6 Xposition Yposition Zposition Zrotation Yrotation Xrotation
	JOINT mixamorig:Spine
	{
		OFFSET	-0.0379	9.4905	-1.3921
		CHANNELS 3 Zrotation Yrotation Xrotation
		JOINT mixamorig:Spine1
		{
			OFFSET	-0.0442	11.0722	-1.6241
			CHANNELS 3 Zrotation Yrotation Xrotation
			JOINT mixamorig:Spine2
			{
				OFFSET	-0.0506	12.6540	-1.8561
				CHANNELS 3 Zrotation Yrotation Xrotation
				JOINT mixamorig:Neck
				{
					OFFSET	-0.0569	14.2358	-2.0881
					CHANNELS 3 Zrotation Yrotation Xrotation
					JOINT mixamorig:Head
					{
						OFFSET	0.0000	3.2802	0.3133
						CHANNELS 3 Zrotation Yrotation Xrotation
						End Site
						{
							OFFSET 0.0000 25.6535 2.4505
						}
					}
				}
				JOINT mixamorig:LeftShoulder
				{
					OFFSET	6.7288	11.7566	-2.0585
					CHANNELS 3 Zrotation Yrotation Xrotation
					JOINT mixamorig:LeftArm
					{
						OFFSET	13.5713	-4.9583	0.0593
						CHANNELS 3 Zrotation Yrotation Xrotation
						JOINT mixamorig:LeftForeArm
						{
							OFFSET	17.2582	-15.4446	-0.1304
							CHANNELS 3 Zrotation Yrotation Xrotation
							JOINT mixamorig:LeftHand
							{
								OFFSET	19.1747	-11.8144	8.4973
								CHANNELS 3 Zrotation Yrotation Xrotation
								JOINT mixamorig:LeftHandThumb1
								{
									OFFSET	1.4152	-3.1459	3.3921
									CHANNELS 3 Zrotation Yrotation Xrotation
									JOINT mixamorig:LeftHandThumb2
									{
										OFFSET	1.1321	-2.5167	2.7137
										CHANNELS 3 Zrotation Yrotation Xrotation
										JOINT mixamorig:LeftHandThumb3
										{
											OFFSET	0.8208	-4.0642	2.2357
											CHANNELS 3 Zrotation Yrotation Xrotation
											End Site
											{
												OFFSET 1.6034 -3.3436 0.9597
											}
										}
									}
								}
								JOINT mixamorig:LeftHandIndex1
								{
									OFFSET	9.2608	-6.0923	10.0311
									CHANNELS 3 Zrotation Yrotation Xrotation
									JOINT mixamorig:LeftHandIndex2
									{
										OFFSET	2.1918	-1.7186	1.6722
										CHANNELS 3 Zrotation Yrotation Xrotation
										JOINT mixamorig:LeftHandIndex3
										{
											OFFSET	1.7360	-1.7660	0.9701
											CHANNELS 3 Zrotation Yrotation Xrotation
											End Site
											{
												OFFSET 2.0655 -2.6048 1.4660
											}
										}
									}
								}
								JOINT mixamorig:LeftHandMiddle1
								{
									OFFSET	10.5922	-6.2980	7.4687
									CHANNELS 3 Zrotation Yrotation Xrotation
									JOINT mixamorig:LeftHandMiddle2
									{
										OFFSET	2.5325	-1.7582	1.0567
										CHANNELS 3 Zrotation Yrotation Xrotation
										JOINT mixamorig:LeftHandMiddle3
										{
											OFFSET	1.4253	-2.1413	0.5937
											CHANNELS 3 Zrotation Yrotation Xrotation
											End Site
											{
												OFFSET 1.4359 -3.3336 0.5679
											}
										}
									}
								}
								JOINT mixamorig:LeftHandRing1
								{
									OFFSET	11.3894	-6.2561	4.0229
									CHANNELS 3 Zrotation Yrotation Xrotation
									JOINT mixamorig:LeftHandRing2
									{
										OFFSET	2.1076	-1.6023	0.6135
										CHANNELS 3 Zrotation Yrotation Xrotation
										JOINT mixamorig:LeftHandRing3
										{
											OFFSET	0.7822	-1.9700	0.2509
											CHANNELS 3 Zrotation Yrotation Xrotation
											End Site
											{
												OFFSET 0.4716 -2.6865 0.5721
											}
										}
									}
								}
								JOINT mixamorig:LeftHandPinky1
								{
									OFFSET	10.9033	-6.8431	1.2170
									CHANNELS 3 Zrotation Yrotation Xrotation
									JOINT mixamorig:LeftHandPinky2
									{
										OFFSET	1.0521	-1.1494	-0.0577
										CHANNELS 3 Zrotation Yrotation Xrotation
										JOINT mixamorig:LeftHandPinky3
										{
											OFFSET	0.2801	-1.5065	0.1598
											CHANNELS 3 Zrotation Yrotation Xrotation
											End Site
											{
												OFFSET 0.6358 -1.4513 0.5238
											}
										}
									}
								}
							}
						}
					}
				}
				JOINT mixamorig:RightShoulder
				{
					OFFSET	-6.8238	11.7566	-2.1177
					CHANNELS 3 Zrotation Yrotation Xrotation
					JOINT mixamorig:RightArm
					{
						OFFSET	-13.5338	-4.9583	-0.0593
						CHANNELS 3 Zrotation Yrotation Xrotation
						JOINT mixamorig:RightForeArm
						{
							OFFSET	-17.2582	-15.4446	-0.1126
							CHANNELS 3 Zrotation Yrotation Xrotation
							JOINT mixamorig:RightHand
							{
								OFFSET	-19.1747	-11.8143	8.6982
								CHANNELS 3 Zrotation Yrotation Xrotation
								JOINT mixamorig:RightHandThumb1
								{
									OFFSET	-1.4504	-3.2286	3.3657
									CHANNELS 3 Zrotation Yrotation Xrotation
									JOINT mixamorig:RightHandThumb2
									{
										OFFSET	-1.1603	-2.5829	2.6926
										CHANNELS 3 Zrotation Yrotation Xrotation
										JOINT mixamorig:RightHandThumb3
										{
											OFFSET	-0.8066	-4.0900	2.2727
											CHANNELS 3 Zrotation Yrotation Xrotation
											End Site
											{
												OFFSET -1.3619 -3.3561 1.1081
											}
										}
									}
								}
								JOINT mixamorig:RightHandIndex1
								{
									OFFSET	-9.3119	-5.9977	10.0611
									CHANNELS 3 Zrotation Yrotation Xrotation
									JOINT mixamorig:RightHandIndex2
									{
										OFFSET	-2.1048	-1.8288	1.6029
										CHANNELS 3 Zrotation Yrotation Xrotation
										JOINT mixamorig:RightHandIndex3
										{
											OFFSET	-1.7590	-1.7055	0.9784
											CHANNELS 3 Zrotation Yrotation Xrotation
											End Site
											{
												OFFSET -2.1656 -2.6293 1.3206
											}
										}
									}
								}
								JOINT mixamorig:RightHandMiddle1
								{
									OFFSET	-10.8050	-6.3490	7.3536
									CHANNELS 3 Zrotation Yrotation Xrotation
									JOINT mixamorig:RightHandMiddle2
									{
										OFFSET	-2.3752	-1.6487	1.1901
										CHANNELS 3 Zrotation Yrotation Xrotation
										JOINT mixamorig:RightHandMiddle3
										{
											OFFSET	-1.3712	-2.2392	0.4981
											CHANNELS 3 Zrotation Yrotation Xrotation
											End Site
											{
												OFFSET -1.5574 -2.6423 0.6323
											}
										}
									}
								}
								JOINT mixamorig:RightHandRing1
								{
									OFFSET	-10.9108	-6.1334	3.9079
									CHANNELS 3 Zrotation Yrotation Xrotation
									JOINT mixamorig:RightHandRing2
									{
										OFFSET	-2.1215	-1.2548	0.4888
										CHANNELS 3 Zrotation Yrotation Xrotation
										JOINT mixamorig:RightHandRing3
										{
											OFFSET	-1.1529	-1.8295	0.3881
											CHANNELS 3 Zrotation Yrotation Xrotation
											End Site
											{
												OFFSET -1.1314 -2.8340 0.3221
											}
										}
									}
								}
								JOINT mixamorig:RightHandPinky1
								{
									OFFSET	-11.0147	-6.9107	1.0680
									CHANNELS 3 Zrotation Yrotation Xrotation
									JOINT mixamorig:RightHandPinky2
									{
										OFFSET	-0.9868	-1.3546	0.1104
										CHANNELS 3 Zrotation Yrotation Xrotation
										JOINT mixamorig:RightHandPinky3
										{
											OFFSET	-0.2187	-1.3359	0.1675
											CHANNELS 3 Zrotation Yrotation Xrotation
											End Site
											{
												OFFSET -0.5717 -1.4745 0.5311
											}
										}
									}
								}
							}
						}
					}
				}
			}
		}
	}
	JOINT mixamorig:LeftUpLeg
	{
		OFFSET	9.6182	-5.2725	-1.0109
		CHANNELS 3 Zrotation Yrotation Xrotation
		JOINT mixamorig:LeftLeg
		{
			OFFSET	1.3853	-43.3265	-1.1856
			CHANNELS 3 Zrotation Yrotation Xrotation
			JOINT mixamorig:LeftFoot
			{
				OFFSET	1.1958	-44.1070	-5.7230
				CHANNELS 3 Zrotation Yrotation Xrotation
				JOINT mixamorig:LeftToeBase
				{
					OFFSET	2.5995	-11.8143	15.8139
					CHANNELS 3 Zrotation Yrotation Xrotation
					End Site
					{
						OFFSET 1.2230 0.0445 7.9736
					}
				}
			}
		}
	}
	JOINT mixamorig:RightUpLeg
	{
		OFFSET	-9.9411	-5.2725	-1.2117
		CHANNELS 3 Zrotation Yrotation Xrotation
		JOINT mixamorig:RightLeg
		{
			OFFSET	-1.3852	-43.3265	-0.5841
			CHANNELS 3 Zrotation Yrotation Xrotation
			JOINT mixamorig:RightFoot
			{
				OFFSET	-1.1958	-44.1069	-6.3865
				CHANNELS 3 Zrotation Yrotation Xrotation
				JOINT mixamorig:RightToeBase
				{
					OFFSET	-2.5995	-11.8146	15.9998
					CHANNELS 3 Zrotation Yrotation Xrotation
					End Site
					{
						OFFSET -1.2231 0.0444 7.9271
					}
				}
			}
		}
	}
}
MOTION
Frames: 4
Frame Time: 0.0333333
-0.3242 94.5336 2.8661 0.7296 -24.8303 -2.7873 4.4930 17.3003 3.3769 3.6035 2.1937 3.0371 3.6039 2.2724 2.9940 -4.1596 1.3456 2.0740 -7.6728 2.4726 5.2831 -0.7463 -11.5775 3.8460 -20.9595 -17.7093 -31.1757 79.3896 -51.3464 -125.7582 16.8271 6.1713 24.2872 -1.7802 2.6842 8.2372 8.6525 13.3550 -1.6471 22.6441 28.3292 25.2067 -63.1355 13.1621 37.8637 -73.8607 11.8160 35.4243 -41.4496 7.6849 23.5276 -71.8820 6.0327 31.1737 -65.8847 11.5215 21.5155 -39.3434 3.8568 13.5700 -70.8769 0.5441 26.7230 -58.4648 10.9210 16.0440 -39.0424 6.8240 20.6201 -67.3508 -9.8011 16.6497 -58.5018 16.3662 17.1903 -61.0618 8.1812 24.6601 -1.1500 20.0329 1.0467 7.2385 34.0244 -29.0965 -63.1820 56.3951 -105.7523 -18.6375 -23.9664 -1.7426 10.7231 -13.4509 6.2946 -14.0959 -7.5176 -5.3985 -38.4197 5.2085 30.8968 66.9982 -13.6034 38.2687 75.2050 -11.0358 35.1626 43.5554 -5.2686 21.2450 76.1846 -10.4726 34.5011 61.5505 -4.9103 20.0115 49.6326 -7.2394 17.2537 82.9191 -2.5944 28.5680 61.4101 -11.0880 14.5315 43.6198 -2.5144 10.7090 63.9615 6.4490 17.7349 58.3094 -16.4907 20.0526 62.3872 -8.9226 27.3645 7.9755 16.8148 -36.6997 -0.0468 -10.2426 28.2676 -14.9645 -2.1815 5.9292 -0.0000 -0.0000 -1.0635 -19.8531 -15.8274 5.1986 -1.1554 -4.9522 29.1964 18.8249 3.3713 -23.4609 0.0000 0.0000 -0.5050 
0.5515 94.9231 3.8567 0.8135 -25.2426 -3.2015 4.1203 17.2580 3.9876 3.1445 2.1125 3.4044 3.1539 2.1663 3.3718 -3.7825 1.1844 2.0488 -7.7778 2.1273 5.2090 -0.8324 -12.0584 3.9730 -19.7092 -18.3279 -32.4700 77.7120 -52.1219 -123.6223 15.7623 5.5259 24.2842 -1.7802 2.6842 8.2372 8.6525 13.3550 -1.6471 22.6441 28.3292 25.2067 -63.1355 13.1621 37.8637 -73.8607 11.8160 35.4243 -41.4496 7.6849 23.5276 -71.8820 6.0327 31.1737 -65.8847 11.5215 21.5155 -39.3434 3.8568 13.5700 -70.8769 0.5441 26.7229 -58.4648 10.9210 16.0440 -39.0424 6.8240 20.6201 -67.3508 -9.8011 16.6497 -58.5018 16.3662 17.1902 -61.0618 8.1813 24.6601 -1.6119 19.6055 0.8651 9.1150 33.8725 -27.6251 -64.2612 56.1949 -107.0494 -19.1253 -22.2812 -2.5589 10.7231 -13.4509 6.2946 -14.0960 -7.5176 -5.3985 -38.4197 5.2085 30.8968 66.9982 -13.6034 38.2687 75.2050 -11.0358 35.1626 43.5553 -5.2686 21.2450 76.1846 -10.4726 34.5011 61.5505 -4.9103 20.0114 49.6326 -7.2394 17.2537 82.9191 -2.5943 28.5680 61.4101 -11.0880 14.5315 43.6198 -2.5144 10.7090 63.9615 6.4490 17.7348 58.3094 -16.4907 20.0526 62.3872 -8.9226 27.3645 7.5590 16.8772 -35.2999 -0.6133 -10.0201 28.8621 -13.8620 -3.5007 8.4757 0.0000 -0.0000 -0.5850 -21.1251 -15.9715 9.1279 -1.8765 -4.6384 24.0469 18.6435 2.8659 -21.3601 -0.0000 -0.0000 -2.4077 
1.6012 95.0540 5.1174 1.7400 -25.6624 -4.0617 3.5890 17.3408 4.3387 2.6043 2.1677 3.6180 2.6189 2.2039 3.5931 -3.4588 1.0418 2.1950 -7.9666 1.8762 5.1399 -0.9791 -12.1227 4.0141 -18.8562 -19.0893 -33.2083 74.5819 -53.3859 -119.6917 14.8376 5.3416 24.2890 -1.7802 2.6842 8.2372 8.6525 13.3550 -1.6471 22.6441 28.3292 25.2067 -63.1355 13.1621 37.8637 -73.8607 11.8160 35.4243 -41.4496 7.6849 23.5276 -71.8820 6.0327 31.1737 -65.8847 11.5215 21.5155 -39.3434 3.8568 13.5700 -70.8769 0.5441 26.7230 -58.4648 10.9210 16.0440 -39.0424 6.8240 20.6201 -67.3508 -9.8011 16.6497 -58.5018 16.3662 17.1903 -61.0618 8.1812 24.6601 -1.4832 19.5253 0.9073 10.5710 33.8399 -26.3904 -65.0161 56.0451 -107.9585 -19.6583 -21.3625 -2.8344 10.7231 -13.4509 6.2946 -14.0959 -7.5176 -5.3985 -38.4197 5.2085 30.8968 66.9982 -13.6034 38.2687 75.2050 -11.0358 35.1626 43.5554 -5.2685 21.2450 76.1846 -10.4726 34.5011 61.5505 -4.9103 20.0115 49.6326 -7.2394 17.2537 82.9191 -2.5943 28.5680 61.4101 -11.0880 14.5315 43.6198 -2.5144 10.7090 63.9615 6.4490 17.7348 58.3094 -16.4907 20.0526 62.3872 -8.9226 27.3645 6.5763 16.6626 -34.7985 -2.0134 -9.2964 32.4532 -11.7675 -3.9045 6.5893 -0.0000 0.0000 -0.3964 -24.1898 -16.6908 10.5571 -2.1975 -2.8463 23.6300 19.5017 2.2596 -17.7946 -0.0000 -0.0000 -7.1780 
2.6905 95.4190 6.3705 2.6393 -27.1260 -4.3972 3.0693 17.5877 4.3820 2.1677 2.4073 3.6285 2.1850 2.4347 3.6068 -3.3285 1.0010 2.3656 -8.3310 1.9898 5.0807 -1.1795 -11.7760 3.9683 -18.6816 -19.5286 -33.1612 70.1505 -54.8270 -114.2246 14.8121 5.1304 24.7699 -1.7802 2.6842 8.2372 8.6525 13.3550 -1.6471 22.6441 28.3292 25.2067 -63.1355 13.1621 37.8637 -73.8607 11.8161 35.4243 -41.4496 7.6849 23.5276 -71.8820 6.0327 31.1737 -65.8847 11.5215 21.5154 -39.3434 3.8568 13.5700 -70.8769 0.5441 26.7229 -58.4648 10.9210 16.0440 -39.0424 6.8240 20.6201 -67.3508 -9.8011 16.6497 -58.5018 16.3662 17.1903 -61.0618 8.1812 24.6601 -0.8428 19.8066 1.1493 11.0825 33.9823 -25.6973 -65.0042 56.0475 -107.9442 -20.0229 -20.9676 -2.6801 10.7231 -13.4509 6.2946 -14.0960 -7.5176 -5.3985 -38.4197 5.2085 30.8968 66.9982 -13.6034 38.2687 75.2050 -11.0358 35.1626 43.5553 -5.2686 21.2450 76.1846 -10.4726 34.5011 61.5505 -4.9103 20.0115 49.6326 -7.2394 17.2537 82.9191 -2.5943 28.5680 61.4101 -11.0880 14.5315 43.6198 -2.5144 10.7090 63.9615 6.4490 17.7348 58.3094 -16.4908 20.0526 62.3872 -8.9226 27.3645 5.6052 16.3247 -34.1041 -2.8165 -8.7073 35.5217 -10.1930 -3.5177 2.8310 0.0000 -0.0000 -0.2094 -26.6333 -17.3227 9.2951 -2.9013 0.1008 25.2740 19.8365 1.2747 -12.7939 -0.0000 0.0000 -12.7953 
